<svg width="96" height="96" xmlns="http://www.w3.org/2000/svg" xmlns:xlink="http://www.w3.org/1999/xlink" xml:space="preserve" overflow="hidden"><g transform="translate(-1018 -257)"><path d="M1108.6 337 1069.5 269C1068 266.3 1064.1 266.3 1062.6 269L1023.4 337C1021.9 339.7 1023.8 343 1026.9 343L1066 343 1105.1 343C1108.2 343 1110.1 339.7 1108.6 337ZM1063 285 1069 285 1069 320 1063 320 1063 285ZM1066 334C1063.2 334 1061 331.8 1061 329 1061 326.2 1063.2 324 1066 324 1068.8 324 1071 326.2 1071 329 1071 331.8 1068.8 334 1066 334Z" fill="#C00000"/></g></svg>