<svg width="96" height="96" xmlns="http://www.w3.org/2000/svg" xmlns:xlink="http://www.w3.org/1999/xlink" xml:space="preserve" overflow="hidden"><g transform="translate(-918 -447)"><path d="M974.471 521.792 957.26 521.792C955.668 521.792 954.378 523.082 954.378 524.674 954.378 526.266 955.668 527.556 957.26 527.556L974.471 527.556C976.063 527.556 977.353 526.266 977.353 524.674 977.353 523.082 976.063 521.792 974.471 521.792Z"/><path d="M965.866 537.328C969.134 537.328 971.853 534.814 972.109 531.556L959.622 531.556C959.878 534.815 962.597 537.328 965.866 537.328Z"/><path d="M990.839 491.474 990.839 490.61C990.59 476.969 979.509 466.016 965.866 465.924L965.866 465.924C952.222 466.014 941.14 476.968 940.89 490.61L940.89 491.474C940.983 494.432 941.571 497.355 942.629 500.119 943.641 502.728 945.112 505.135 946.97 507.227 949.256 509.727 951.763 514.575 952.82 516.727 953.144 517.38 953.81 517.793 954.539 517.793L977.19 517.793C977.919 517.793 978.585 517.38 978.91 516.727 979.966 514.576 982.473 509.727 984.759 507.227 986.617 505.135 988.088 502.728 989.1 500.119 990.158 497.354 990.745 494.432 990.839 491.474ZM985.076 491.374C984.989 493.676 984.524 495.949 983.7 498.1 982.938 500.039 981.839 501.828 980.453 503.383 978.251 506.037 976.366 508.938 974.834 512.027L956.892 512.027C955.361 508.938 953.475 506.037 951.273 503.383 949.887 501.828 948.788 500.039 948.027 498.1 947.203 495.949 946.739 493.677 946.653 491.376L946.653 490.656C946.847 480.167 955.373 471.748 965.864 471.687L965.864 471.687C976.355 471.748 984.882 480.168 985.074 490.658Z"/><path d="M966.062 462C967.167 462 968.062 461.105 968.062 460L968.062 453C968.062 451.895 967.167 451 966.062 451 964.957 451 964.062 451.895 964.062 453L964.062 460C964.062 461.105 964.957 462 966.062 462Z"/><path d="M942.326 470.8C943.093 471.595 944.359 471.617 945.154 470.849 945.948 470.082 945.971 468.816 945.203 468.021 945.187 468.004 945.171 467.988 945.154 467.972L940.2 463.018C939.406 462.251 938.139 462.273 937.372 463.067 936.623 463.842 936.623 465.071 937.372 465.846Z"/><path d="M988.411 471.761C988.941 471.761 989.45 471.55 989.825 471.175L994.774 466.225C995.525 465.415 995.478 464.15 994.668 463.399 993.9 462.686 992.713 462.687 991.946 463.4L987 468.347C986.219 469.128 986.219 470.395 987 471.175 987.375 471.55 987.884 471.761 988.414 471.761Z"/><path d="M935 488.5 928 488.5C926.895 488.5 926 489.395 926 490.5 926 491.605 926.895 492.5 928 492.5L935 492.5C936.105 492.5 937 491.605 937 490.5 937 489.395 936.105 488.5 935 488.5Z"/><path d="M942.326 510.136 937.376 515.086C936.563 515.833 936.509 517.099 937.257 517.912 938.004 518.725 939.27 518.779 940.083 518.031 940.123 517.994 940.163 517.955 940.2 517.914L945.15 512.964C945.945 512.197 945.966 510.931 945.199 510.136 944.432 509.341 943.166 509.319 942.371 510.087 942.354 510.103 942.338 510.119 942.322 510.136Z"/><path d="M989.825 509.757C989.073 508.948 987.807 508.902 986.998 509.654 986.19 510.406 986.143 511.672 986.896 512.481 986.929 512.517 986.964 512.552 987 512.585L991.949 517.534C992.744 518.301 994.01 518.279 994.777 517.485 995.526 516.71 995.526 515.481 994.777 514.706Z"/><path d="M1003.75 488.432 996.75 488.432C995.645 488.432 994.75 489.327 994.75 490.432 994.75 491.537 995.645 492.432 996.75 492.432L1003.75 492.432C1004.85 492.432 1005.75 491.537 1005.75 490.432 1005.75 489.327 1004.85 488.432 1003.75 488.432Z"/></g></svg>