<svg width="96" height="96" xmlns="http://www.w3.org/2000/svg" xmlns:xlink="http://www.w3.org/1999/xlink" xml:space="preserve" overflow="hidden"><g transform="translate(-361 -338)"><path d="M407 368.1 407 372.1C407.7 372.1 408.3 372 409 372 409.7 372 410.3 372 411 372.1L411 368.1C414.9 368.3 418.6 369.1 422 370.4L420.5 374C421.8 374.5 423 375 424.2 375.6L425.7 371.9C427.6 372.8 429.3 373.9 431 375.1L435.3 370.8C428 365.3 418.9 362 409 362 384.7 362 365 381.7 365 406L365 410 371 410 371 406C371 401.9 371.7 397.9 372.9 394.2L376.6 395.7C377 394.4 377.5 393.2 378 392L374.3 390.5C375.8 387.1 377.9 383.9 380.3 381.2L383.1 384C384 383 384.9 382 385.9 381.1L383.1 378.3C385.8 375.8 388.9 373.6 392.3 371.9L393.8 375.6C395 375 396.2 374.5 397.5 374L396 370.3C399.4 369 403.1 368.3 407 368.1Z"/><path d="M445.1 380.8 440.8 385.1C441.9 386.8 442.9 388.6 443.7 390.4L440 392C440.5 393.2 441 394.5 441.4 395.7L445.1 394.2C446.3 397.9 447 401.9 447 406L447 410 453 410 453 406C453 396.6 450.1 388 445.1 380.8Z"/><path d="M406.2 404.2C406 404.3 405.9 404.5 405.7 404.7 404.3 406.4 404.5 408.9 406.2 410.4 407.9 411.8 410.4 411.6 411.9 409.9L443 373 406.2 404.2Z"/></g></svg>